<?xml version="1.0" encoding="UTF-8" standalone="no"?>
<!-- Created with Inkscape (http://www.inkscape.org/) -->

<svg
   xmlns:dc="http://purl.org/dc/elements/1.1/"
   xmlns:cc="http://creativecommons.org/ns#"
   xmlns:rdf="http://www.w3.org/1999/02/22-rdf-syntax-ns#"
   xmlns:svg="http://www.w3.org/2000/svg"
   xmlns="http://www.w3.org/2000/svg"
   xmlns:sodipodi="http://sodipodi.sourceforge.net/DTD/sodipodi-0.dtd"
   xmlns:inkscape="http://www.inkscape.org/namespaces/inkscape"
   width="406.34543"
   height="253.375"
   id="svg2"
   version="1.1"
   inkscape:version="0.48.2 r9819"
   sodipodi:docname="controlDiagramDetunedCavity.svg">
  <defs
     id="defs4" />
  <sodipodi:namedview
     id="base"
     pagecolor="#ffffff"
     bordercolor="#666666"
     borderopacity="1.0"
     inkscape:pageopacity="0.0"
     inkscape:pageshadow="2"
     inkscape:zoom="1.43"
     inkscape:cx="252.15625"
     inkscape:cy="111.08823"
     inkscape:document-units="px"
     inkscape:current-layer="layer1"
     showgrid="false"
     inkscape:window-width="1280"
     inkscape:window-height="737"
     inkscape:window-x="-8"
     inkscape:window-y="1912"
     inkscape:window-maximized="1"
     fit-margin-top="0"
     fit-margin-left="0"
     fit-margin-right="0"
     fit-margin-bottom="0" />
  <metadata
     id="metadata7">
    <rdf:RDF>
      <cc:Work
         rdf:about="">
        <dc:format>image/svg+xml</dc:format>
        <dc:type
           rdf:resource="http://purl.org/dc/dcmitype/StillImage" />
        <dc:title></dc:title>
      </cc:Work>
    </rdf:RDF>
  </metadata>
  <g
     inkscape:label="Layer 1"
     inkscape:groupmode="layer"
     id="layer1"
     transform="translate(-122.84375,-134.4375)">
    <path
       style="fill:none;stroke:#000000;stroke-width:1px;stroke-linecap:butt;stroke-linejoin:miter;stroke-opacity:1"
       d="m 150,225.76644 345.74468,-3.19149 3.19149,150 -352.12766,0 z"
       id="path2993"
       inkscape:connector-curvature="0" />
    <path
       style="fill:none;stroke:#000000;stroke-width:1px;stroke-linecap:butt;stroke-linejoin:miter;stroke-opacity:1"
       d="m 221.2766,224.70261 1.06383,91.48936 179.78723,-3.19149 0,-90.42553"
       id="path2995"
       inkscape:connector-curvature="0" />
    <path
       style="fill:none;stroke:#000000;stroke-width:1px;stroke-linecap:butt;stroke-linejoin:miter;stroke-opacity:1"
       d="m 167.83217,204.80974 c 0.87385,2.08994 0.6993,4.12409 0.6993,6.2937 0,0.2331 -0.0737,0.47816 0,0.6993 0.16483,0.49448 0.53447,0.90412 0.6993,1.3986 0.13151,0.39455 0,1.63839 0,2.09791 0,0.2331 -0.10425,0.49081 0,0.6993 0.22744,0.45488 0.81985,0.98867 1.3986,0.6993 1.37276,-0.68638 0.31482,-1.32895 0.6993,-2.09791 0.14743,-0.29485 0.59506,-0.38656 0.6993,-0.6993 0.14743,-0.44227 -0.11307,-0.94632 0,-1.3986 0.12642,-0.50566 0.57289,-0.89293 0.6993,-1.3986 0.11307,-0.45228 -0.11307,-0.94632 0,-1.3986 0.12642,-0.50567 0.4662,-0.9324 0.6993,-1.3986 0,-0.6993 -0.13714,-1.41218 0,-2.0979 0.10222,-0.51111 0.4662,-0.9324 0.6993,-1.3986 0.2331,-0.69931 0.57812,-1.37081 0.6993,-2.09791 0.11497,-0.68978 -0.13714,-1.41218 0,-2.0979 0.10223,-0.51111 0.50573,-0.91465 0.69931,-1.3986 0.27376,-0.68441 0.55473,-1.37509 0.6993,-2.0979 0.0914,-0.45715 -0.0914,-0.94146 0,-1.3986 0.14456,-0.72282 0.55473,-1.37509 0.6993,-2.09791 0.0914,-0.45714 -0.14743,-0.95632 0,-1.3986 0.10424,-0.31273 0.59505,-0.38656 0.6993,-0.6993 0.19306,-0.57917 -0.22236,-3.05179 0,-3.4965 0.14742,-0.29485 0.55187,-0.40445 0.6993,-0.6993 0.13863,-0.27727 -0.14296,-1.95494 0,-2.0979 0.19134,-0.19135 2.41784,0.18968 2.7972,0 0.29485,-0.14743 0.40445,-0.55188 0.6993,-0.69931 0.55944,-0.27972 1.53846,0.27973 2.0979,0 0.29485,-0.14742 0.38657,-0.59505 0.6993,-0.6993 0.31858,-0.10619 4.42153,0 4.89511,0 0.2331,0 0.47816,0.0737 0.6993,0 0.49448,-0.16482 0.89294,-0.57288 1.3986,-0.6993 0.45228,-0.11307 0.9324,0 1.3986,0 1.3986,0 2.79721,0 4.19581,0 1.1655,0 2.331,0 3.4965,0 0.2331,0 0.4662,0 0.6993,0 0.2331,0 0.49081,0.10425 0.6993,0 0.29485,-0.14742 0.40445,-0.55187 0.6993,-0.6993 0.20849,-0.10424 0.4662,0 0.6993,0 0.2331,0 0.4662,0 0.6993,0 0.2331,0 0.6993,-0.2331 0.6993,0 0,0.2331 -0.53447,-0.16482 -0.6993,0 -0.16482,0.16483 0.16483,0.53448 0,0.6993 -0.16482,0.16483 -0.53447,-0.16482 -0.6993,0 -0.14296,0.14297 0.13864,1.82064 0,2.09791 -0.14742,0.29485 -0.55187,0.40445 -0.6993,0.6993 -0.13863,0.27726 0.14297,1.95494 0,2.0979 -0.16482,0.16483 -0.53447,-0.16483 -0.6993,0 -0.16482,0.16483 0,0.4662 0,0.6993 0,1.3986 0,2.7972 0,4.1958 0,0.2331 0,0.4662 0,0.6993 0,0.2331 0.2331,0.6993 0,0.6993 -0.2331,0 -0.16482,-0.53447 0,-0.6993 0.16483,-0.16482 0.53448,0.16483 0.6993,0 0.16483,-0.16482 0,-0.4662 0,-0.6993 0,-0.2331 0,-0.4662 0,-0.6993"
       id="path2997"
       inkscape:connector-curvature="0" />
    <path
       style="fill:none;stroke:#000000;stroke-width:1px;stroke-linecap:butt;stroke-linejoin:miter;stroke-opacity:1"
       d="m 188.81119,194.32022 c -0.67842,1.31509 0.33921,2.83897 0,4.19581 -0.12642,0.50566 -0.53448,0.90412 -0.6993,1.3986 -0.0737,0.22114 0,0.4662 0,0.6993 0,0.4662 0,0.9324 0,1.3986 0,2.0979 0,4.19581 0,6.29371 0,0.30122 0.0946,4.00657 0,4.1958 -0.14743,0.29485 -0.55188,0.40445 -0.6993,0.6993 -0.0919,0.18388 0,2.43153 0,2.79721"
       id="path2999"
       inkscape:connector-curvature="0" />
    <path
       style="fill:none;stroke:#000000;stroke-width:1px;stroke-linecap:butt;stroke-linejoin:miter;stroke-opacity:1"
       d="m 179.72028,195.01953 c 0.95758,-3.0313 2.85067,-0.25093 4.1958,-0.69931 0.49448,-0.16482 0.90413,-0.53447 1.39861,-0.6993 0.22113,-0.0737 0.47816,0.0737 0.6993,0 0.49448,-0.16482 0.89293,-0.57288 1.3986,-0.6993 0.45228,-0.11307 0.95632,0.14743 1.3986,0 0.31274,-0.10424 0.38656,-0.59505 0.6993,-0.6993 0.62937,-0.20979 1.46853,0.20979 2.0979,0 0.49448,-0.16482 0.90412,-0.53447 1.3986,-0.6993 0.39455,-0.13151 1.63839,0 2.09791,0 1.1655,0 2.331,0 3.4965,0"
       id="path3001"
       inkscape:connector-curvature="0" />
    <path
       style="fill:none;stroke:#000000;stroke-width:1px;stroke-linecap:butt;stroke-linejoin:miter;stroke-opacity:1"
       d="m 306.99301,222.29225 c -0.9324,0.2331 -1.93757,0.26949 -2.79721,0.6993 -0.41698,0.20849 0.2085,0.98162 0,1.3986 -0.14742,0.29486 -0.6993,0.36965 -0.6993,0.69931 0,1.15964 0.98068,0.49033 1.3986,0.6993 0.29486,0.14742 0.40445,0.55187 0.69931,0.6993 0.14344,0.0717 1.99928,0.0986 2.0979,0 0.16482,-0.16483 -0.16483,-0.53448 0,-0.6993 0.16482,-0.16483 0.74501,0.22857 0.6993,0 -0.24618,-1.23091 -0.9324,-2.33101 -1.3986,-3.49651 z"
       id="path3003"
       inkscape:connector-curvature="0" />
    <path
       style="fill:none;stroke:#000000;stroke-width:1px;stroke-linecap:butt;stroke-linejoin:miter;stroke-opacity:1"
       d="m 279.72028,358.65589 c 0.46969,0.11742 3.1845,1.0364 4.1958,0.6993 0.31274,-0.10425 0.40445,-0.55188 0.6993,-0.6993 0.41634,-0.20817 2.90774,0.19625 3.49651,0 0.49448,-0.16483 0.90412,-0.53448 1.3986,-0.6993 0.09,-0.03 2.03999,-0.029 2.0979,0 0.29485,0.14742 0.4662,0.4662 0.6993,0.6993"
       id="path3005"
       inkscape:connector-curvature="0" />
    <path
       style="fill:none;stroke:#000000;stroke-width:1px;stroke-linecap:butt;stroke-linejoin:miter;stroke-opacity:1"
       d="m 297.9021,355.85869 c 0,0.9324 0,1.8648 0,2.7972 0.2331,0.2331 0.59505,0.38656 0.6993,0.6993 0.14742,0.44228 -0.14743,0.95632 0,1.3986 0.10424,0.31274 0.59505,0.38656 0.6993,0.6993 0.14742,0.44228 -0.14743,0.95633 0,1.3986 0.10424,0.31274 0.55187,0.40445 0.6993,0.6993 0.10425,0.20849 -0.0737,0.47817 0,0.6993 0.16483,0.49448 0.53447,0.90413 0.6993,1.39861 0.0737,0.22113 -0.10424,0.49081 0,0.6993 0.14743,0.29485 0.4662,0.4662 0.6993,0.6993 0.13655,0.13654 0.88413,1.21378 1.3986,0.6993 0.072,-0.072 -0.0581,-3.32217 0,-3.49651 0.10425,-0.31273 0.59506,-0.38656 0.6993,-0.6993 0.29485,-0.88455 -0.18286,-1.8829 0,-2.7972 0.14457,-0.72281 0.55474,-1.37509 0.6993,-2.0979 0.18286,-0.9143 -0.22614,-1.89264 0,-2.7972 0.12642,-0.50567 0.57289,-0.89294 0.6993,-1.39861 0.11308,-0.45228 0,-0.9324 0,-1.3986 0,-1.3986 0,-2.7972 0,-4.1958 0,-0.4662 -0.14742,-0.95633 0,-1.3986 0.10425,-0.31274 0.59506,-0.38657 0.69931,-0.6993 0.0581,-0.17433 -0.072,-3.42447 0,-3.49651 0.16482,-0.16482 0.49081,0.10425 0.6993,0 0.29485,-0.14742 0.40445,-0.55187 0.6993,-0.6993 0.20849,-0.10424 0.47816,0.0737 0.6993,0 0.49448,-0.16482 0.89293,-0.57288 1.3986,-0.6993 0.45228,-0.11307 0.95632,0.14743 1.3986,0 0.31274,-0.10424 0.42501,-0.51644 0.6993,-0.6993 0.43369,-0.28912 0.9324,-0.4662 1.3986,-0.6993 0.4662,-0.2331 0.91466,-0.50572 1.3986,-0.6993 0.68441,-0.27376 1.4135,-0.42554 2.09791,-0.6993 1.69092,-0.67637 3.05658,-1.7302 4.8951,-2.0979 0.45715,-0.0914 0.94632,0.11307 1.3986,0 0.77754,-0.19439 2.01967,-1.20422 2.79721,-1.3986 0.45228,-0.11307 0.94632,0.11307 1.3986,0 3.63116,-0.9078 -0.74654,-0.6993 2.7972,-0.6993 0.27644,0 3.19784,-0.14933 3.4965,0 0.29485,0.14742 0.55188,0.40444 0.6993,0.6993 0.0503,0.10052 0.0106,3.46473 0,3.4965 -0.10424,0.31274 -0.59505,0.38656 -0.6993,0.6993 -0.14742,0.44228 0.14743,0.95632 0,1.3986 -0.10424,0.31274 -0.59505,0.38657 -0.6993,0.6993 -0.282,0.84601 0.23814,3.24326 0,4.19581 -0.12641,0.50566 -0.57288,0.89293 -0.6993,1.3986 -0.11307,0.45228 0,0.9324 0,1.3986 0,1.1655 0,2.331 0,3.4965"
       id="path3007"
       inkscape:connector-curvature="0" />
    <path
       style="fill:none;stroke:#000000;stroke-width:1px;stroke-linecap:butt;stroke-linejoin:miter;stroke-opacity:1"
       d="m 312.58741,350.26428 c -0.79978,2.00066 -0.6993,3.57161 -0.6993,5.59441 0,0.4662 0,0.9324 0,1.3986 0,0.4662 -0.11307,0.94632 0,1.3986 0.12642,0.50566 0.57289,0.89293 0.6993,1.3986 0.13295,0.53179 0,2.91092 0,3.4965 0,1.63999 -0.16482,-0.32965 0.6993,1.39861 0.10425,0.20849 0,0.9324 0,0.6993 0,-4.63858 0.32966,0.98896 -0.6993,-2.09791 -0.14742,-0.44227 0,-0.9324 0,-1.3986 0,-1.3986 0,-2.7972 0,-4.1958 0,-1.6317 0,-3.26341 0,-4.89511 0,-0.9324 -0.29485,-1.91265 0,-2.7972 0.42982,-1.28945 1.34396,-2.36558 2.0979,-3.4965 0.18286,-0.27429 0.40445,-0.55188 0.69931,-0.6993 0.20849,-0.10425 0.4908,0.10424 0.6993,0 0.29485,-0.14743 0.40445,-0.55188 0.6993,-0.6993 0.20849,-0.10425 0.4662,0 0.6993,0 0.2331,0 0.53447,-0.16483 0.6993,0 0.16482,0.16482 -0.10425,0.49081 0,0.6993 0.14742,0.29485 0.55187,0.40445 0.6993,0.6993 0.039,0.078 0.039,3.41845 0,3.4965 -0.14743,0.29485 -0.55188,0.40445 -0.6993,0.6993 -0.10425,0.20849 0,0.4662 0,0.6993 -0.2331,0.2331 -0.55188,0.40445 -0.6993,0.6993 -0.10425,0.20849 0.16482,0.53448 0,0.6993 -0.16483,0.16483 -0.49081,-0.10424 -0.6993,0 -0.29485,0.14743 -0.40445,0.55188 -0.6993,0.6993 -0.0366,0.0183 -2.06132,0.0183 -2.09791,0 -0.29485,-0.14742 -0.40445,-0.55187 -0.6993,-0.6993 -0.20849,-0.10424 -0.9324,0 -0.6993,0 3.18342,0 0.04,-0.32965 2.0979,0.6993 0.2085,0.10425 0.49081,-0.10424 0.69931,0 0.28933,0.14467 1.90029,1.8015 2.0979,2.09791 0.28912,0.43368 0.41017,0.96491 0.6993,1.3986 1.07103,1.60655 0.39944,-0.29986 2.0979,1.3986 0.36856,0.36856 0.41018,0.96491 0.6993,1.3986 0.36572,0.54858 0.9324,0.9324 1.3986,1.3986 0.2331,0.2331 0.4662,0.4662 0.6993,0.6993 0.2331,0.2331 0.40445,0.55188 0.6993,0.6993 0.20849,0.10425 0.53448,-0.16482 0.6993,0 0.16483,0.16483 -0.16482,0.53448 0,0.6993 0.16483,0.16483 0.53448,0.16483 0.69931,0 0.16482,-0.16482 -0.10425,-0.49081 0,-0.6993 0.14742,-0.29485 0.4662,-0.4662 0.6993,-0.6993"
       id="path3009"
       inkscape:connector-curvature="0" />
    <path
       style="fill:none;stroke:#000000;stroke-width:1px;stroke-linecap:butt;stroke-linejoin:miter;stroke-opacity:1"
       d="m 291.60839,302.01253 c 0.2331,0.9324 0.4662,1.8648 0.6993,2.79721 0.2331,0.2331 0.55188,0.40444 0.6993,0.6993 0.10425,0.20849 0,0.4662 0,0.6993 0,0.4662 -0.14742,0.95632 0,1.3986 0.10425,0.31273 0.55188,0.40445 0.6993,0.6993 0.20849,0.41698 -0.20849,0.98162 0,1.3986 0.14743,0.29485 0.55188,0.40445 0.6993,0.6993 0.10425,0.20849 -0.16482,0.53447 0,0.6993 0.16483,0.16483 0.53448,0.16483 0.69931,0 0.32965,-0.32965 -0.2085,-0.98162 0,-1.3986 0.14742,-0.29485 0.55187,-0.40445 0.6993,-0.6993 0.23172,-0.46344 -0.19537,-2.2111 0,-2.7972 0.16482,-0.49448 0.57288,-0.89294 0.6993,-1.3986 0.28267,-1.13071 -0.22858,-2.35364 0,-3.49651 0.10222,-0.5111 0.57288,-0.89293 0.6993,-1.3986 0.22614,-0.90456 -0.22614,-1.89264 0,-2.7972 0.12641,-0.50567 0.57288,-0.89294 0.6993,-1.3986 0.13752,-0.55009 0,-3.46859 0,-4.19581 0,-0.2331 0,-0.4662 0,-0.6993 0,-0.2331 -0.10425,-0.49081 0,-0.6993 0.14742,-0.29485 0.55187,-0.40445 0.6993,-0.6993 0.20849,-0.41698 -0.32965,-1.06895 0,-1.3986 0.24547,-0.24547 3.01347,0.24151 3.4965,0 0.29485,-0.14743 0.40445,-0.55188 0.6993,-0.6993 0.4126,-0.2063 1.6169,0.16033 2.0979,0 0.49449,-0.16483 0.90413,-0.53448 1.39861,-0.6993 0.22113,-0.0737 0.4662,0 0.6993,0 0.4662,0 0.95632,0.14742 1.3986,0 0.31274,-0.10425 0.38656,-0.59506 0.6993,-0.6993 0.8421,-0.28071 1.9551,0.2807 2.7972,0 0.31274,-0.10425 0.38657,-0.59506 0.6993,-0.6993 0.66342,-0.22114 1.3986,0 2.0979,0 0.32972,0 3.46481,-0.0317 3.49651,0 0.16482,0.16482 0,0.4662 0,0.6993 0,0.36567 0.0919,2.61332 0,2.7972 -0.14743,0.29485 -0.55188,0.40445 -0.6993,0.6993 -0.10631,0.21261 0,2.31432 0,2.7972 0,2.0979 0,4.19581 0,6.29371"
       id="path3011"
       inkscape:connector-curvature="0" />
    <path
       style="fill:none;stroke:#000000;stroke-width:1px;stroke-linecap:butt;stroke-linejoin:miter;stroke-opacity:1"
       d="m 301.3986,296.41813 c 0.78507,1.7266 0.6993,3.14392 0.6993,4.8951 0,1.6317 0,3.2634 0,4.89511 0,0.31493 -0.10641,1.88508 0,2.0979 0.14743,0.29485 0.36965,0.6993 0.6993,0.6993 0.2331,0 0,-0.4662 0,-0.6993 0,-0.6993 0,-1.3986 0,-2.0979 0,-1.63171 0,-3.26341 0,-4.89511 0,-0.4662 0.12808,-0.95034 0,-1.3986 -0.34485,-1.20698 -1.64478,-2.2656 -1.3986,-3.4965 0.29272,-1.46359 1.96928,-2.25461 2.7972,-3.49651 0.1293,-0.19395 -0.16482,-0.53447 0,-0.6993 0.16483,-0.16482 0.53448,0.16483 0.6993,0 0.16483,-0.16482 -0.16482,-0.53447 0,-0.6993 0.16483,-0.16482 0.53448,-0.16482 0.69931,0 0.16482,0.16483 -0.16483,0.53448 0,0.6993 0.16482,0.16483 0.53447,-0.16482 0.6993,0 0.32965,0.32966 -0.32966,1.06895 0,1.3986 0.16482,0.16483 0.53447,-0.16482 0.6993,0 0.16482,0.16483 0,0.4662 0,0.6993 0,0.31494 0.10641,1.88509 0,2.09791 -0.14743,0.29485 -0.55188,0.40445 -0.6993,0.6993 -0.10425,0.20849 0.10424,0.49081 0,0.6993 -0.0928,0.18567 -1.91223,2.00506 -2.09791,2.0979 -0.20849,0.10425 -0.6993,-0.2331 -0.6993,0 0,0.22548 1.20433,1.01005 1.3986,1.3986 0.10425,0.20849 -0.10424,0.49081 0,0.6993 0.18675,0.37349 1.72975,1.72975 2.09791,2.0979 0.2331,0.2331 0.4662,0.4662 0.6993,0.69931 0.2331,0.2331 0.40445,0.55187 0.6993,0.6993 0.20849,0.10424 0.53447,-0.16483 0.6993,0 0.16483,0.16482 -0.10425,0.49081 0,0.6993 1.45516,2.91032 -0.0483,-0.74758 1.3986,0.6993 0.16483,0.16482 -0.16483,0.53447 0,0.6993 0.16483,0.16482 0.53447,-0.16483 0.6993,0 0,1.02895 -0.16483,0.53447 0.6993,1.3986"
       id="path3013"
       inkscape:connector-curvature="0" />
    <path
       style="fill:none;stroke:#000000;stroke-width:1px;stroke-linecap:butt;stroke-linejoin:miter;stroke-opacity:1"
       d="m 297.2028,212.50204 c 0,-1.8648 0,-3.7296 0,-5.5944 0,-0.4662 -0.14743,-0.95633 0,-1.3986 0.10424,-0.31274 0.59505,-0.38657 0.6993,-0.6993 0.14742,-0.44228 0,-0.93241 0,-1.39861 0,-1.6317 0,-3.2634 0,-4.8951 0,-0.4662 -0.11307,-0.94632 0,-1.3986 0.12641,-0.50567 0.57288,-0.89294 0.6993,-1.3986 0.0237,-0.095 -0.0168,-4.89511 0,-4.89511 0.2331,0 -0.16483,0.53448 0,0.6993 0.9324,0.9324 0.6993,-1.1655 0.6993,0.6993 0,1.63999 -0.16483,-0.32965 0.6993,1.3986 0.10425,0.2085 -0.10425,0.49081 0,0.6993 0.14743,0.29486 0.55188,0.40445 0.6993,0.69931 0.10425,0.20849 -0.0737,0.47816 0,0.6993 0.16483,0.49448 0.53447,0.90412 0.6993,1.3986 0.0737,0.22114 -0.0737,0.47816 0,0.6993 0.16483,0.49448 0.53448,0.90412 0.6993,1.3986 0.0737,0.22114 -0.10424,0.49081 0,0.6993 0.86413,1.72826 0.6993,-0.24138 0.6993,1.3986 0,3.18342 -0.32965,0.04 0.6993,2.0979 0.20849,0.41699 -0.20849,0.98162 0,1.39861 0.14743,0.29485 0.55188,0.40444 0.6993,0.6993 0.10425,0.20849 0.2331,0.6993 0,0.6993 -0.2331,0 -0.10424,-0.49081 0,-0.6993 0.14743,-0.29486 0.55188,-0.40445 0.6993,-0.6993 0.20631,-0.41261 -0.16033,-1.61691 0,-2.09791 0.16483,-0.49448 0.57289,-0.89293 0.69931,-1.3986 0.11307,-0.45228 -0.14743,-0.95632 0,-1.3986 0.10424,-0.31274 0.59505,-0.38656 0.6993,-0.6993 0.14742,-0.44228 -0.14743,-0.95633 0,-1.3986 0.10424,-0.31274 0.51644,-0.42501 0.6993,-0.6993 0.28912,-0.43369 0.53447,-0.90412 0.6993,-1.3986 0.0737,-0.22114 -0.0737,-0.47817 0,-0.6993 0.16482,-0.49448 0.53447,-0.90413 0.6993,-1.39861 0.0737,-0.22113 -0.10425,-0.49081 0,-0.6993 0.29485,-0.5897 1.10375,-0.8089 1.3986,-1.3986 0.10425,-0.20849 -0.16483,-0.53447 0,-0.6993 0.16483,-0.16483 0.53447,-0.16483 0.6993,0 0.0281,0.0281 0,2.5404 0,2.7972 0,6.06061 0,12.12122 0,18.18182"
       id="path3015"
       inkscape:connector-curvature="0" />
    <path
       style="fill:none;stroke:#000000;stroke-width:1px;stroke-linecap:butt;stroke-linejoin:miter;stroke-opacity:1"
       d="m 429.37063,208.30624 c 0,0.9324 -0.18286,1.88291 0,2.7972 0.0646,0.32325 0.55187,0.40445 0.6993,0.6993 0.21976,0.43953 -0.21976,2.35768 0,2.7972 0.14743,0.29486 0.55188,0.40445 0.6993,0.69931 0.20896,0.41792 -0.46034,1.3986 0.6993,1.3986 1.15295,0 0.53447,-1.60342 0.6993,-2.09791 0.80355,-2.41063 0.6993,-0.51801 0.6993,-2.0979 0,-4.35569 -0.20849,1.74176 0.6993,-2.7972 0.13715,-0.68572 -0.13714,-1.41218 0,-2.0979 0.10222,-0.51111 0.59708,-0.8875 0.6993,-1.3986 0.22858,-1.14287 -0.28267,-2.3658 0,-3.49651 0.9078,-3.63116 0.6993,0.74654 0.6993,-2.7972 0,-0.48639 -0.12644,-3.24361 0,-3.4965 1.45517,-2.91033 -0.0483,0.74757 1.39861,-0.6993 0.16482,-0.16483 -0.16483,-0.53448 0,-0.6993 0.10852,-0.10853 1.82578,0.0907 2.0979,0 0.49448,-0.16483 0.90412,-0.53448 1.3986,-0.69931 0.66341,-0.22113 1.41948,0.16961 2.0979,0 0.50567,-0.12641 0.89294,-0.57288 1.3986,-0.6993 0.45228,-0.11307 0.94146,0.0914 1.3986,0 0.72282,-0.14456 1.37509,-0.55473 2.09791,-0.6993 0.45714,-0.0914 0.94632,0.11307 1.3986,0 0.50566,-0.12641 0.88749,-0.59708 1.3986,-0.6993 0.73845,-0.14769 3.88378,0 4.8951,0 1.16551,0 2.33101,0 3.49651,0 0.2331,0 0.4662,0 0.6993,0 0.2331,0 0.49081,-0.10424 0.6993,0 0.29485,0.14743 0.40445,0.55188 0.6993,0.6993 0.27727,0.13864 1.95494,-0.14296 2.0979,0 0.16483,0.16483 -0.10424,0.49081 0,0.6993 0.14743,0.29485 0.55188,0.40445 0.6993,0.6993 0.0298,0.0596 0.0298,2.73759 0,2.79721 -0.14742,0.29485 -0.55187,0.40445 -0.6993,0.6993 -0.10641,0.21282 0,1.78296 0,2.0979 0,1.8648 0,3.7296 0,5.59441 0,0.16959 0.0225,2.07541 0,2.0979 -0.16482,0.16482 -0.4662,0 -0.6993,0"
       id="path3017"
       inkscape:connector-curvature="0" />
    <path
       style="fill:none;stroke:#000000;stroke-width:1px;stroke-linecap:butt;stroke-linejoin:miter;stroke-opacity:1"
       d="m 445.45455,202.71183 c 1.52274,2.04056 1.3986,2.80369 1.3986,4.89511 0,0.4662 -0.11307,0.94632 0,1.3986 0.12641,0.50566 0.57288,0.89294 0.6993,1.3986 0.1811,0.7244 0,1.99534 0,2.7972 0,0.9324 0,1.86481 0,2.79721 0,0.2331 0.2331,0.6993 0,0.6993 -0.2331,0 0,-0.4662 0,-0.6993 0,-0.4662 0,-0.9324 0,-1.39861"
       id="path3019"
       inkscape:connector-curvature="0" />
    <path
       style="fill:none;stroke:#000000;stroke-width:1px;stroke-linecap:butt;stroke-linejoin:miter;stroke-opacity:1"
       d="m 436.36364,203.41113 c 1.1655,-0.9324 2.20059,-2.05668 3.4965,-2.7972 0.40478,-0.2313 0.95632,0.14743 1.3986,0 0.31274,-0.10424 0.38657,-0.59505 0.6993,-0.6993 0.44228,-0.14743 0.94632,0.11307 1.3986,0 0.50567,-0.12642 0.8875,-0.59708 1.3986,-0.6993 1.14287,-0.22857 2.33101,0 3.49651,0 2.5641,0 5.1282,0 7.69231,0"
       id="path3021"
       inkscape:connector-curvature="0" />
    <path
       style="fill:none;stroke:#000000;stroke-width:1px;stroke-linecap:butt;stroke-linejoin:miter;stroke-opacity:1"
       d="m 341.95804,204.11043 c 0,3.49651 0,6.99301 0,10.48951 0,0.69931 0,1.39861 0,2.09791 0,0.2331 0.2331,0.6993 0,0.6993 -0.2331,0 0,-0.4662 0,-0.6993 0,-1.3986 0,-2.79721 0,-4.19581 0,-1.8648 0,-3.7296 0,-5.5944 0,-0.9324 -0.20226,-1.88701 0,-2.79721 0.4662,-1.1655 0.9324,-2.331 1.3986,-3.4965 0.2331,-0.2331 0.55188,-0.40445 0.6993,-0.6993 0.10425,-0.20849 -0.10424,-0.49081 0,-0.6993 0.7731,-1.54619 0.43402,-0.21701 1.39861,-0.6993 0.56861,-0.28431 0.5786,-1.1093 1.3986,-0.6993 0.29485,0.14742 0.4662,0.4662 0.6993,0.6993 0.2331,0.2331 0.55187,0.40445 0.6993,0.6993 0.10424,0.20849 -0.10425,0.49081 0,0.6993 0.14742,0.29485 0.55187,0.40445 0.6993,0.6993 0.0183,0.0366 0.0183,2.06132 0,2.0979 -0.14743,0.29485 -0.55188,0.40445 -0.6993,0.6993 -0.10425,0.20849 0.10424,0.49081 0,0.6993 -0.14743,0.29486 -0.55188,0.40445 -0.6993,0.69931 -0.10425,0.20849 0.10424,0.4908 0,0.6993 -0.7731,1.54619 -0.43402,0.217 -1.3986,0.6993 -0.29485,0.14742 -0.4662,0.4662 -0.6993,0.6993 -0.2331,0.2331 -0.40445,0.55187 -0.69931,0.6993 -0.41698,0.20849 -0.98161,-0.20849 -1.3986,0 -0.29485,0.14742 -0.40445,0.55187 -0.6993,0.6993 -0.20849,0.10424 -0.4662,0 -0.6993,0 -0.2331,0 -0.6993,0.2331 -0.6993,0 0,-0.2331 0.53448,-0.16483 0.6993,0 0.16483,0.16483 -0.16482,0.53447 0,0.6993 0.16483,0.16483 0.53448,-0.16483 0.6993,0 0.16483,0.16483 -0.16482,0.53447 0,0.6993 0.16483,0.16483 0.49081,-0.10425 0.6993,0 0.37349,0.18674 1.72975,1.72975 2.09791,2.0979 0.36815,0.36816 1.91115,1.72442 2.0979,2.0979 0.10424,0.2085 -0.10425,0.49081 0,0.6993 0.29485,0.58971 1.10375,0.8089 1.3986,1.39861 0.10424,0.20849 -0.16483,0.53447 0,0.6993 0.16483,0.16482 0.49081,-0.10425 0.6993,0 0.29485,0.14742 0.4662,0.4662 0.6993,0.6993 0.2331,0.2331 0.4662,0.4662 0.6993,0.6993"
       id="path3023"
       inkscape:connector-curvature="0" />
    <path
       style="fill:none;stroke:#000000;stroke-width:1px;stroke-linecap:butt;stroke-linejoin:miter;stroke-opacity:1"
       d="m 359.44056,195.71883 c -1.66214,-0.70942 -2.64293,-0.6993 -4.1958,-0.6993 -0.2331,0 -0.53448,-0.16483 -0.69931,0 -0.16482,0.16482 0.16483,0.53447 0,0.6993 -0.16482,0.16482 -0.53447,-0.16483 -0.6993,0 -0.16482,0.16482 0,0.4662 0,0.6993 0,1.6317 0,3.2634 0,4.8951 0,1.1655 0,2.331 0,3.49651 0,0.4662 -0.11307,0.94632 0,1.3986 0.12642,0.50566 0.53448,0.90412 0.6993,1.3986 0.2477,0.74308 -0.24769,2.05412 0,2.7972 0.16483,0.49448 0.53448,0.90412 0.69931,1.3986 0.16033,0.481 -0.20631,1.6853 0,2.0979 0.14742,0.29486 0.55187,0.40445 0.6993,0.6993 0.20849,0.41699 -0.2085,0.98162 0,1.39861 1.45516,2.91032 -0.0483,-0.74758 1.3986,0.6993 0.16482,0.16482 -0.16483,0.53447 0,0.6993 0.16482,0.16482 0.4662,0 0.6993,0 0.1696,0 2.07541,0.0225 2.0979,0 0.16483,-0.16483 -0.16483,-0.53448 0,-0.6993 0.16483,-0.16483 0.49081,0.10424 0.6993,0 0.29485,-0.14743 0.40445,-0.55188 0.6993,-0.6993 0.20849,-0.10425 0.53448,0.16482 0.6993,0 0.9324,-0.9324 -1.1655,-0.6993 0.6993,-0.6993"
       id="path3025"
       inkscape:connector-curvature="0" />
    <path
       style="fill:none;stroke:#000000;stroke-width:1px;stroke-linecap:butt;stroke-linejoin:miter;stroke-opacity:1"
       d="m 369.23077,201.31323 c -2.00121,1.50091 -2.81843,1.46229 -3.4965,3.49651 -0.0737,0.22113 0.10424,0.4908 0,0.6993 -0.14743,0.29485 -0.55188,0.40445 -0.6993,0.6993 -0.10425,0.20849 0.0737,0.47816 0,0.6993 -0.16483,0.49448 -0.53448,0.90412 -0.69931,1.3986 -0.14742,0.44228 0,0.9324 0,1.3986 0,0.4662 -0.14742,0.95632 0,1.3986 0.10425,0.31274 0.55188,0.40445 0.69931,0.6993 0.10424,0.20849 -0.16483,0.53448 0,0.6993 0.16482,0.16483 0.53447,-0.16482 0.6993,0 1.44687,1.44688 -2.21103,-0.0566 0.6993,1.3986 0.20849,0.10425 0.53447,-0.16482 0.6993,0 0.16482,0.16483 -0.16483,0.53448 0,0.6993 0.16482,0.16483 0.4662,0 0.6993,0 0.31493,0 1.88508,0.10642 2.0979,0 0.29485,-0.14742 0.4662,-0.4662 0.6993,-0.6993 0.2331,-0.2331 0.55188,-0.40445 0.6993,-0.6993 0.10425,-0.20849 -0.10424,-0.49081 0,-0.6993 0.14743,-0.29485 0.55188,-0.40445 0.6993,-0.6993 0.10425,-0.20849 -0.10424,-0.49081 0,-0.6993 0.14743,-0.29485 0.55188,-0.40445 0.6993,-0.6993 0.10402,-0.20802 0,-3.90163 0,-4.1958 0,-0.2331 0,-0.4662 0,-0.6993 0,-0.2331 0.14923,-0.52023 0,-0.6993 -1.05519,-1.26624 -2.08312,-2.64848 -3.4965,-3.49651 -1.0192,-0.61152 -2.30792,-0.6993 -3.4965,-0.6993 -0.86413,0 -0.6993,0.98068 -0.6993,1.3986 0,0.36568 -0.0919,2.61333 0,2.79721 0.0928,0.18567 1.91223,2.00506 2.0979,2.0979 0.078,0.039 3.41845,0.039 3.4965,0 0.29485,-0.14743 0.38656,-0.59506 0.6993,-0.6993 0.44228,-0.14743 0.95633,0.14742 1.3986,0 0.62548,-0.20849 0.77313,-1.19011 1.3986,-1.3986 0.44228,-0.14743 0.95633,0.14742 1.39861,0 0.31273,-0.10425 0.4662,-0.46621 0.6993,-0.69931 0.2331,-0.2331 0.4662,-0.4662 0.6993,-0.6993"
       id="path3027"
       inkscape:connector-curvature="0" />
    <path
       style="fill:none;stroke:#000000;stroke-width:1px;stroke-linecap:butt;stroke-linejoin:miter;stroke-opacity:1"
       d="m 377.62238,191.52302 c 0.9324,-0.4662 1.8293,-1.01144 2.7972,-1.3986 0.21643,-0.0866 0.4662,0 0.6993,0 0.2331,0 0.53448,-0.16483 0.6993,0 0.16483,0.16483 -0.10424,0.49081 0,0.6993 0.14743,0.29485 0.55188,0.40445 0.6993,0.6993 0.10425,0.20849 0,0.4662 0,0.6993 0,0.2331 0,0.4662 0,0.6993 0,1.3986 0,2.79721 0,4.19581 0,1.6317 0,3.2634 0,4.8951 0,0.6993 0.13715,1.41218 0,2.0979 -0.10222,0.51111 -0.57288,0.89294 -0.6993,1.39861 -0.11307,0.45228 0,0.9324 0,1.3986 0,0.4662 0,0.9324 0,1.3986 0,1.6317 0,3.2634 0,4.8951 0,1.1655 0,2.33101 0,3.49651 0,0.2331 0.16483,0.53447 0,0.6993 -0.16482,0.16482 -0.4662,0 -0.6993,0 -0.31493,0 -1.88508,0.10641 -2.0979,0 -0.29485,-0.14743 -0.40445,-0.55188 -0.6993,-0.6993 -0.21282,-0.10641 -1.78297,0 -2.0979,0"
       id="path3029"
       inkscape:connector-curvature="0" />
    <path
       style="fill:none;stroke:#000000;stroke-width:1px;stroke-linecap:butt;stroke-linejoin:miter;stroke-opacity:1"
       d="m 237.76224,201.31323 c 0,4.19581 0,8.39161 0,12.58741 0,0.93241 0,1.86481 0,2.79721 0,0.2331 0.2331,0.6993 0,0.6993 -0.2331,0 0,-0.4662 0,-0.6993 0,-0.2331 0,-0.4662 0,-0.6993 0,-1.57989 0.10424,0.31273 -0.6993,-2.09791 -0.15103,-0.45308 0,-2.92398 0,-3.4965 0,-1.1655 0,-2.331 0,-3.4965 0,-0.6993 -0.0867,-1.404 0,-2.0979 0.14742,-1.17941 0.4662,-2.33101 0.6993,-3.49651 0.2331,-1.1655 0.37277,-2.35365 0.6993,-3.4965 0.14319,-0.50118 0.41017,-0.96492 0.6993,-1.3986 0.1976,-0.29641 1.80857,-1.95324 2.0979,-2.09791 0.20849,-0.10424 0.4662,0 0.6993,0 0.2331,0 0.49081,-0.10424 0.6993,0 0.29485,0.14743 0.40445,0.55188 0.6993,0.69931 0.96459,0.48229 0.62551,-0.8469 1.3986,0.6993 0.10425,0.20849 -0.10424,0.49081 0,0.6993 0.14743,0.29485 0.55188,0.40445 0.69931,0.6993 0.0183,0.0366 0.0183,2.06132 0,2.0979 -0.14743,0.29485 -0.55188,0.40445 -0.69931,0.6993 -0.10424,0.20849 0.10425,0.49081 0,0.6993 -0.0928,0.18567 -1.91223,2.00507 -2.0979,2.0979 -0.20849,0.10425 -0.49081,-0.10424 -0.6993,0 -0.29485,0.14743 -0.38656,0.80355 -0.6993,0.6993 -1.28945,-0.42981 -2.23452,-2.60269 -3.4965,-2.0979 -1.08214,0.43286 -0.19161,2.34686 0,3.49651 0.0542,0.32516 0.55187,0.40444 0.6993,0.6993 0.10424,0.20849 -0.10425,0.49081 0,0.6993 0.41958,0.83916 1.67832,1.25874 2.0979,2.0979 0.10425,0.20849 -0.10425,0.49081 0,0.6993 0.41958,0.83916 1.67832,1.25874 2.0979,2.0979 0.10425,0.20849 -0.10424,0.49081 0,0.6993 0.29485,0.5897 1.10375,0.8089 1.3986,1.3986 0.10425,0.20849 -0.16482,0.53448 0,0.6993 0.16483,0.16483 0.49081,-0.10424 0.6993,0 0.86413,0.43207 0.69931,0.67517 0.69931,1.39861"
       id="path3031"
       inkscape:connector-curvature="0" />
    <path
       style="fill:none;stroke:#000000;stroke-width:1px;stroke-linecap:butt;stroke-linejoin:miter;stroke-opacity:1"
       d="m 255.24476,192.22232 c -1.39861,0 -2.79721,0 -4.19581,0 -0.2331,0 -0.49081,-0.10424 -0.6993,0 -1.54619,0.7731 -0.21701,0.43402 -0.6993,1.3986 -0.14743,0.29485 -0.55188,0.40445 -0.6993,0.6993 -0.0503,0.10053 -0.0106,3.46474 0,3.49651 0.10424,0.31273 0.59505,0.38656 0.6993,0.6993 0.2895,0.86849 -0.22986,2.57705 0,3.4965 0.12642,0.50567 0.57288,0.89294 0.6993,1.3986 0.27424,1.09695 -0.27424,2.39956 0,3.49651 0.12642,0.50566 0.53447,0.90412 0.6993,1.3986 0.0737,0.22114 0,0.4662 0,0.6993 0,0.4662 0,0.9324 0,1.3986 0,1.8648 0,3.7296 0,5.59441 0,0.1696 -0.0225,2.07541 0,2.0979 0.16483,0.16483 0.4662,0 0.6993,0 0.25681,0 2.76906,0.0281 2.7972,0 0.16483,-0.16483 -0.16482,-0.53448 0,-0.6993 0.23551,-0.23551 1.1631,0.2355 1.39861,0 0.16482,-0.16483 -0.16483,-0.53448 0,-0.6993 0.2355,-0.23551 1.16309,0.2355 1.3986,0 0.16482,-0.16483 -0.16483,-0.53448 0,-0.6993 0.9324,-0.9324 0.6993,1.1655 0.6993,-0.6993"
       id="path3033"
       inkscape:connector-curvature="0" />
    <path
       style="fill:none;stroke:#000000;stroke-width:1px;stroke-linecap:butt;stroke-linejoin:miter;stroke-opacity:1"
       d="m 262.93706,200.61393 c -3.21418,1.60709 -2.7972,0.35615 -2.7972,2.7972 0,0.2331 0.10425,0.49081 0,0.6993 -0.14743,0.29486 -0.59505,0.38657 -0.6993,0.69931 -0.13357,0.40069 0,2.83998 0,3.4965 0,0.4662 0,0.9324 0,1.3986 0,0.2331 -0.10425,0.49081 0,0.6993 0.14742,0.29485 0.55187,0.40445 0.6993,0.6993 0.10425,0.20849 -0.10425,0.49081 0,0.6993 0.14743,0.29485 0.55188,0.40445 0.6993,0.6993 0.48229,0.96459 -0.84689,0.62551 0.6993,1.3986 0.20849,0.10425 0.4662,0 0.6993,0 0.2331,0 0.4662,0 0.6993,0 0.2331,0 0.4662,0 0.6993,0 0.2331,0 0.49081,0.10425 0.6993,0 0.29486,-0.14742 0.4662,-0.4662 0.69931,-0.6993 0.2331,-0.2331 0.55187,-0.40445 0.6993,-0.6993 0.10424,-0.20849 -0.10425,-0.49081 0,-0.6993 0.14742,-0.29485 0.55187,-0.40445 0.6993,-0.6993 0.10424,-0.20849 -0.0737,-0.47816 0,-0.6993 0.16482,-0.49448 0.53447,-0.90412 0.6993,-1.3986 0.13984,-0.41954 0,-2.93849 0,-3.4965 0,-0.4662 0,-0.93241 0,-1.39861 0,-0.2331 0.0737,-0.47816 0,-0.6993 -0.16483,-0.49448 -0.53448,-0.90412 -0.6993,-1.3986 -0.0737,-0.22114 0.21642,-0.61273 0,-0.6993 -1.10357,-0.44143 -2.33623,-0.44146 -3.49651,-0.6993 -0.93821,-0.20849 -1.8361,-0.6993 -2.7972,-0.6993 -0.2331,0 0,0.4662 0,0.6993 0,0.2331 0,0.4662 0,0.6993 0,0.2331 0,0.4662 0,0.6993 0,0.2331 -0.20849,0.80355 0,0.6993 1.04246,-0.52122 1.97307,-2.92203 2.7972,-2.0979 3.08338,3.08338 -3.4954,2.79776 -0.6993,4.19581 0.0781,0.039 3.41845,0.039 3.49651,0 0.29485,-0.14743 0.38656,-0.59506 0.6993,-0.69931 0.44227,-0.14742 0.95632,0.14743 1.3986,0 0.62547,-0.20849 0.85002,-1.03288 1.3986,-1.3986 2.54018,-1.69345 0.49452,0.20478 2.0979,-1.3986"
       id="path3035"
       inkscape:connector-curvature="0" />
    <path
       style="fill:none;stroke:#000000;stroke-width:1px;stroke-linecap:butt;stroke-linejoin:miter;stroke-opacity:1"
       d="m 269.93007,187.32722 c 1.1655,0 2.331,0 3.4965,0 0.2331,0 0.49081,-0.10425 0.6993,0 0.29486,0.14742 0.55188,0.40445 0.6993,0.6993 0.0919,0.18387 0,2.43152 0,2.7972 0,1.3986 0,2.7972 0,4.19581 0,0.4662 0,0.9324 0,1.3986 0,0.4662 0.11308,0.94632 0,1.3986 -0.12641,0.50566 -0.59707,0.88749 -0.6993,1.3986 -0.22413,1.12067 0.22414,2.37583 0,3.4965 -0.14456,0.72282 -0.55473,1.37509 -0.6993,2.09791 -0.0914,0.45714 0,0.9324 0,1.3986 0,2.0979 0,4.1958 0,6.2937 0,1.1655 0,2.33101 0,3.49651 0,0.4662 0,0.9324 0,1.3986 0,0.2331 0.2331,0.6993 0,0.6993 -0.32965,0 -0.40445,-0.55188 -0.6993,-0.6993 -0.20849,-0.10425 -0.49081,0.10424 -0.6993,0 -0.29485,-0.14743 -0.40445,-0.55188 -0.6993,-0.6993 -0.41698,-0.20849 -1.06895,0.32965 -1.3986,0 -0.16483,-0.16483 0.16483,-0.53448 0,-0.6993 -0.16483,-0.16483 -0.6993,0.2331 -0.6993,0 0,-0.2331 0.4662,0 0.6993,0"
       id="path3037"
       inkscape:connector-curvature="0" />
    <path
       style="fill:none;stroke:#000000;stroke-width:1px;stroke-linecap:butt;stroke-linejoin:miter;stroke-opacity:1"
       d="m 493.00699,256.55799 c -1.65734,1.2173 -1.12624,3.97497 -2.0979,5.5944 -0.33921,0.56535 -1.05939,0.83325 -1.3986,1.3986 -0.37925,0.63209 -0.42554,1.4135 -0.6993,2.09791 -1.04668,2.6167 -0.4561,0.21289 -2.0979,3.4965 -0.32966,0.65931 -0.36965,1.43859 -0.6993,2.0979 -2.35767,3.5365 -0.65029,0.57677 -2.09791,4.19581 -0.38715,0.96789 -0.9324,1.8648 -1.3986,2.7972 -0.2331,0.4662 -0.53447,0.90412 -0.6993,1.3986 -0.0737,0.22114 0.2331,0.6993 0,0.6993 -0.84778,0 0.17407,-0.87336 0.6993,-1.3986 0.2331,-0.2331 0.51644,-0.42501 0.6993,-0.6993 0.57825,-0.86738 0.9324,-1.8648 1.3986,-2.7972 1.59851,-3.19702 -0.43368,0.72281 2.09791,-3.49651 0.26817,-0.44695 0.43113,-0.95165 0.6993,-1.3986 0.43241,-0.72068 1.02274,-1.34618 1.3986,-2.0979 0.32965,-0.65931 0.32005,-1.46582 0.6993,-2.0979 3.94286,-6.57145 -1.07171,4.42753 2.0979,-3.49651 0.19358,-0.48394 0.38657,-0.98162 0.6993,-1.3986 0.39559,-0.52744 1.30536,-0.74592 1.3986,-1.3986 0.16809,-1.17664 -1.289,-2.46452 -0.6993,-3.4965 0.6228,-1.08989 2.42011,-0.75277 3.49651,-1.3986 0.19988,-0.11993 -0.10425,-0.49081 0,-0.69931 0.14742,-0.29485 0.55187,-0.40444 0.6993,-0.6993 0.20896,-0.41792 -0.46035,-1.3986 0.6993,-1.3986 0.4662,0 -0.32966,1.06895 0,1.3986 0.16482,0.16483 0.53447,-0.16482 0.6993,0 0.16483,0.16483 -0.10425,0.49081 0,0.6993 0.14742,0.29486 0.51644,0.42502 0.6993,0.69931 0.28912,0.43368 0.41017,0.96491 0.6993,1.3986 0.36572,0.54857 1.03288,0.85002 1.3986,1.3986 0.0868,0.13026 1.35379,2.75239 1.3986,2.7972 0.36857,0.36856 1.03004,0.33074 1.3986,0.6993 0.73713,0.73713 0.66148,2.06008 1.39861,2.7972 0.36856,0.36857 1.03003,0.33074 1.3986,0.69931 0.36856,0.36856 0.38656,0.98161 0.6993,1.3986 0.39558,0.52744 1.00301,0.87115 1.3986,1.3986 0.31274,0.41698 0.41017,0.96491 0.6993,1.3986 0.18286,0.27429 0.4662,0.4662 0.6993,0.6993 0.2331,0.4662 0.41018,0.96491 0.6993,1.3986 0.42439,0.63659 1.78799,1.47809 2.0979,2.0979 0.20897,0.41793 -0.46034,1.3986 0.6993,1.3986 0.2331,0 0,-0.4662 0,-0.6993 0,-0.2331 0,-0.4662 0,-0.6993"
       id="path3039"
       inkscape:connector-curvature="0" />
    <path
       style="fill:none;stroke:#000000;stroke-width:1px;stroke-linecap:butt;stroke-linejoin:miter;stroke-opacity:1"
       d="m 387.41259,357.95659 c 0.4662,1.1655 0.83722,2.37374 1.3986,3.4965 0.16852,0.33705 2.77801,2.78281 2.7972,2.7972 0.41698,0.31274 0.96492,0.41018 1.3986,0.69931 1.60022,1.0668 -0.43726,0.55354 2.09791,1.3986 0.22113,0.0737 0.47816,-0.0737 0.6993,0 0.49448,0.16482 0.90412,0.53447 1.3986,0.6993 0.22114,0.0737 0.49081,-0.10425 0.6993,0 0.29485,0.14742 0.40445,0.55187 0.6993,0.6993 0.20849,0.10424 0.49081,-0.10425 0.6993,0 0.29485,0.14742 0.55187,0.40445 0.6993,0.6993 0.10425,0.20849 0,0.4662 0,0.6993 0,0.2331 0.16483,0.53447 0,0.6993 -0.16483,0.16483 -0.53447,-0.16483 -0.6993,0 -0.16483,0.16483 0.10424,0.49081 0,0.6993 -0.14467,0.28934 -1.8015,1.9003 -2.0979,2.0979 -0.43369,0.28913 -0.98162,0.38657 -1.3986,0.6993 -2.44697,1.83523 -0.56632,0.7551 -2.09791,2.79721 -0.39558,0.52744 -0.9324,0.9324 -1.3986,1.3986 -0.9324,0.9324 -1.8648,1.8648 -2.7972,2.7972 -4.28219,4.28219 0.88455,-1.1794 -2.0979,2.7972 -0.39559,0.52745 -0.9324,0.9324 -1.3986,1.3986 -0.2331,0.23311 -0.4662,0.46621 -0.6993,0.69931 -0.2331,0.2331 -0.55188,0.40445 -0.69931,0.6993 -0.10424,0.20849 0.16483,0.53447 0,0.6993 -0.16482,0.16482 -0.53447,-0.16483 -0.6993,0 -0.16482,0.16482 -0.2331,0.6993 0,0.6993 0.32966,0 0.4662,-0.4662 0.6993,-0.6993"
       id="path3041"
       inkscape:connector-curvature="0" />
    <path
       style="fill:none;stroke:#000000;stroke-width:1px;stroke-linecap:butt;stroke-linejoin:miter;stroke-opacity:1"
       d="m 134.26573,287.32722 c -0.2331,-0.9324 -1.6317,-2.5641 -0.6993,-2.79721 0.9324,-0.2331 1.3789,3.47681 0.6993,2.79721 -0.88761,-0.88762 -1.15242,-2.2656 -1.3986,-3.49651 -0.0457,-0.22857 0.61273,-0.21642 0.6993,0 0.44143,1.10358 0.0878,2.47731 0.6993,3.49651 6.74692,6.74691 1.75475,0.71229 4.19581,5.5944 0.37586,0.75173 1.06753,1.32541 1.3986,2.09791 0.37859,0.88338 0.36184,1.8973 0.6993,2.7972 2.23776,5.96736 0.70867,0.0328 2.0979,4.8951 1.75616,6.14657 -0.27808,-0.13494 1.3986,4.89511 0.37908,1.13722 0.71264,2.46755 1.39861,3.4965 0.18285,0.27429 0.51644,0.42501 0.6993,0.6993 0.28912,0.43369 0.53447,0.90412 0.6993,1.3986 0.0737,0.22114 -0.16483,0.53448 0,0.6993 0.93292,0.93293 2.60191,-3.00827 2.7972,-3.4965 0.54752,-1.36881 0.88096,-2.81542 1.3986,-4.1958 0.44076,-1.17536 1.00165,-2.30564 1.3986,-3.49651 0.30393,-0.91177 0.36184,-1.8973 0.6993,-2.7972 0.36603,-0.97608 0.9324,-1.8648 1.3986,-2.7972 0.93241,-1.8648 1.97592,-3.67807 2.79721,-5.59441 2.32647,-5.42843 -1.26181,1.40372 2.0979,-4.1958 0.26817,-0.44695 0.41017,-0.96492 0.6993,-1.3986 0.18286,-0.27429 0.4662,-0.4662 0.6993,-0.6993 0.2331,-0.2331 0.40445,-0.55188 0.6993,-0.69931 0.20849,-0.10424 0.4662,0 0.6993,0"
       id="path3043"
       inkscape:connector-curvature="0" />
    <path
       style="fill:none;stroke:#000000;stroke-width:1px;stroke-linecap:butt;stroke-linejoin:miter;stroke-opacity:1"
       d="m 140.55944,211.10344 c -0.80152,4.00761 -0.16775,2.4334 -1.3986,4.89511 -0.2331,0.4662 -0.41018,0.96491 -0.6993,1.3986 -0.18286,0.27429 -0.51644,0.42501 -0.6993,0.6993 -0.28913,0.43369 -0.38657,0.98162 -0.6993,1.3986 -0.39559,0.52745 -1.00302,0.87116 -1.3986,1.3986 -0.31274,0.41698 -0.38657,0.98162 -0.69931,1.3986 -0.39558,0.52745 -1.00301,0.87116 -1.3986,1.3986 -0.62547,0.83397 -0.66147,2.06008 -1.3986,2.79721 -0.36856,0.36856 -0.96491,0.41017 -1.3986,0.6993 -0.54858,0.36572 -0.8089,1.10375 -1.3986,1.3986 -0.20849,0.10424 -0.53447,-0.16483 -0.6993,0 -0.3108,0.3108 0.5439,1.3209 -0.6993,0.6993 -0.29485,-0.14743 -0.40445,-0.55188 -0.6993,-0.6993 -0.20849,-0.10425 -0.53448,0.16483 -0.6993,0 -0.16483,-0.16483 0,-0.4662 0,-0.6993 0,-0.6993 0,-1.3986 0,-2.0979 0,-0.81236 -0.15849,-2.86256 0,-3.49651 0.12641,-0.50566 0.57288,-0.89293 0.6993,-1.3986 0.11307,-0.45228 -0.11307,-0.94632 0,-1.3986 0.25283,-1.01133 1.06895,-1.80824 1.3986,-2.7972 0.0737,-0.22114 -0.10425,-0.49081 0,-0.6993 1.45516,-2.91033 -0.0483,0.74757 1.3986,-0.6993 0.16483,-0.16483 -0.16483,-0.53448 0,-0.69931 0.16483,-0.16482 0.53447,-0.16482 0.6993,0 0.16483,0.16483 -0.10424,0.49081 0,0.69931 2.31929,2.31928 -0.32965,-0.65931 0.6993,1.3986 0.14743,0.29485 0.59506,0.38656 0.6993,0.6993 0.14743,0.44227 -0.14742,0.95632 0,1.3986 0.10425,0.31274 0.55188,0.40445 0.6993,0.6993 2.11181,4.22361 -0.1008,0.29608 0.6993,3.4965 0.12642,0.50567 0.4662,0.9324 0.6993,1.3986 0.6993,1.39861 1.39861,2.79721 2.09791,4.19581 0.2331,0.4662 0.57288,0.89293 0.6993,1.3986 0.11307,0.45228 -0.14743,0.95633 0,1.3986 0.20849,0.62548 1.10375,0.8089 1.3986,1.3986 0.10424,0.20849 -0.10425,0.49081 0,0.6993 0.14742,0.29485 0.55187,0.40445 0.6993,0.6993 0.10424,0.2085 -0.16483,0.53448 0,0.69931 0.16483,0.16482 0.53447,0.16482 0.6993,0 0.16483,-0.16483 -0.10425,-0.49081 0,-0.69931 0.14743,-0.29485 0.4662,-0.4662 0.6993,-0.6993"
       id="path3045"
       inkscape:connector-curvature="0" />
    <path
       style="fill:none;stroke:#000000;stroke-width:1px;stroke-linecap:butt;stroke-linejoin:miter;stroke-opacity:1"
       d="m 123.07692,199.91463 c 3.21419,1.60709 1.75475,1.3986 4.19581,1.3986 0.2331,0 0.47816,-0.0737 0.6993,0 0.49448,0.16483 0.89293,0.57289 1.3986,0.6993 0.55008,0.13752 3.46858,0 4.1958,0 0.72722,0 3.64573,0.13752 4.19581,0 0.50566,-0.12641 0.89293,-0.57288 1.3986,-0.6993 0.59525,-0.14881 3.09506,0.20072 3.4965,0 0.29485,-0.14742 0.40445,-0.55187 0.6993,-0.6993 0.27727,-0.13863 1.95494,0.14296 2.09791,0 0.16482,-0.16483 0,-0.4662 0,-0.6993 0,-0.2331 0,-0.4662 0,-0.6993 0,-0.85362 0.27135,-1.61257 -0.69931,-2.0979 -0.20849,-0.10425 -0.4908,0.10424 -0.6993,0 -0.29485,-0.14743 -0.40445,-0.55188 -0.6993,-0.6993 -0.20849,-0.10425 -0.49081,0.10424 -0.6993,0 -0.5897,-0.29485 -0.77313,-1.19011 -1.3986,-1.3986 -0.44228,-0.14743 -0.95632,0.14742 -1.3986,0 -0.31274,-0.10425 -0.38656,-0.59506 -0.6993,-0.69931 -0.37595,-0.12531 -2.20514,0 -2.7972,0 -0.2331,0 -0.4662,0 -0.6993,0 -0.2331,0 -0.69931,-0.2331 -0.69931,0 0,1.15965 0.98068,0.49034 1.39861,0.69931 0.29485,0.14742 0.4662,0.4662 0.6993,0.6993 0.4662,0 0.95632,-0.14743 1.3986,0 0.31274,0.10424 0.38656,0.59505 0.6993,0.6993 0.44228,0.14742 0.94632,-0.11307 1.3986,0 0.50567,0.12641 0.90412,0.53447 1.3986,0.6993 2.0817,0.6939 -1.43483,-1.65586 2.0979,0.6993 0.27429,0.18286 0.40445,0.55187 0.6993,0.6993 0.2085,0.10424 0.49081,-0.10425 0.69931,0 0.18567,0.0928 2.00506,1.91223 2.0979,2.0979 0.10424,0.20849 0,0.4662 0,0.6993 0,0.2331 0.10424,0.49081 0,0.6993 -0.0669,0.13386 -2.66334,2.73027 -2.79721,2.79721 -0.20849,0.10424 -0.4908,-0.10425 -0.6993,0 -0.29485,0.14742 -0.40445,0.55187 -0.6993,0.6993 -0.20849,0.10424 -0.49081,-0.10425 -0.6993,0 -0.29485,0.14742 -0.36964,0.6993 -0.6993,0.6993 -0.2331,0 -0.16482,-0.53448 0,-0.6993 0.16483,-0.16483 0.4662,0 0.6993,0"
       id="path3047"
       inkscape:connector-curvature="0" />
    <path
       style="fill:none;stroke:#000000;stroke-width:1px;stroke-linecap:butt;stroke-linejoin:miter;stroke-opacity:1"
       d="m 511.18881,213.20134 c 0.4662,1.1655 0.9324,2.33101 1.3986,3.49651 0,0.4662 -0.11307,0.94632 0,1.3986 0.12642,0.50566 0.57289,0.89293 0.6993,1.3986 0.11307,0.45228 0,0.9324 0,1.3986 0,0.6993 0,1.3986 0,2.0979 0,1.6317 0,3.26341 0,4.89511 0,0.6993 0,1.3986 0,2.0979 0,0.4662 -0.14742,0.95633 0,1.3986 0.10425,0.31274 0.59506,0.38657 0.6993,0.6993 0.22114,0.66342 0,1.3986 0,2.0979 0,0.2331 0.2331,0.69931 0,0.69931 -0.4662,0 0.2085,-0.98162 0,-1.39861 -0.14742,-0.29485 -0.59505,-0.38656 -0.6993,-0.6993 -0.14742,-0.44227 0.11307,-0.94632 0,-1.3986 -0.12641,-0.50566 -0.59708,-0.88749 -0.6993,-1.3986 -0.22857,-1.14287 0.22858,-2.35364 0,-3.4965 -0.14456,-0.72282 -0.57812,-1.37081 -0.6993,-2.09791 -0.11496,-0.68978 0.11497,-1.40811 0,-2.0979 -0.12118,-0.7271 -0.57812,-1.3708 -0.6993,-2.0979 -0.19161,-1.14964 0,-2.331 0,-3.4965 0,-1.1655 -0.22857,-2.35364 0,-3.49651 0.24618,-1.2309 1.00165,-2.30563 1.3986,-3.4965 0.0737,-0.22114 -0.10424,-0.49081 0,-0.6993 0.0928,-0.18567 1.91223,-2.00507 2.0979,-2.0979 0.2085,-0.10425 0.49081,-0.10425 0.69931,0 0.29485,0.14742 0.4662,0.4662 0.6993,0.6993 0.2331,0.2331 0.55187,0.40445 0.6993,0.6993 0.10641,0.21282 0,1.78297 0,2.0979 0,0.27644 0.14933,3.19784 0,3.4965 -0.14743,0.29486 -0.55188,0.40445 -0.6993,0.6993 -0.10425,0.2085 0.10424,0.49081 0,0.69931 -0.14743,0.29485 -0.4662,0.4662 -0.6993,0.6993 -0.2331,0.2331 -0.46621,0.4662 -0.69931,0.6993 -0.2331,0.2331 -0.4662,0.4662 -0.6993,0.6993 -0.2331,0.2331 -0.40445,0.55187 -0.6993,0.6993 -0.20849,0.10424 -0.4662,0 -0.6993,0 -0.2331,0 -0.6993,0.2331 -0.6993,0 0,-0.2331 0.4662,0 0.6993,0 1.63999,0 -0.32965,0.16483 1.3986,-0.6993 0.15674,-0.0784 2.63103,0 2.79721,0 0.48288,0 2.58459,-0.10631 2.7972,0 0.29485,0.14742 0.40445,0.55187 0.6993,0.6993 0.20849,0.10424 0.49081,-0.10425 0.6993,0 0.29485,0.14742 0.4662,0.4662 0.6993,0.6993 0.2331,0.2331 0.55188,0.40445 0.6993,0.6993 0.0183,0.0366 0.0183,2.06132 0,2.0979 -0.14742,0.29485 -0.51644,0.42501 -0.6993,0.6993 -0.28912,0.43369 -0.41017,0.96492 -0.6993,1.3986 -0.18286,0.27429 -0.4662,0.4662 -0.6993,0.6993 -0.2331,0.2331 -0.42501,0.51645 -0.6993,0.69931 -1.29102,0.86067 -2.90479,1.23722 -4.1958,2.0979 -0.27429,0.18286 -0.38657,0.59505 -0.69931,0.6993 -0.32011,0.1067 -3.10618,0 -3.4965,0 -0.2331,0 -0.4662,0 -0.6993,0 -0.2331,0 -0.53447,0.16482 -0.6993,0 -0.16483,-0.16483 0.10425,-0.49081 0,-0.6993 -0.14743,-0.29485 -0.55188,-0.40445 -0.6993,-0.6993 -0.10425,-0.20849 0,-0.4662 0,-0.6993 0,-0.4662 0,-0.9324 0,-1.39861"
       id="path3049"
       inkscape:connector-curvature="0" />
    <path
       style="fill:none;stroke:#000000;stroke-width:1px;stroke-linecap:butt;stroke-linejoin:miter;stroke-opacity:1"
       d="m 500,197.11743 c 0.9324,0.2331 1.83611,0.6993 2.7972,0.6993 0.52123,0 0.89294,-0.57289 1.3986,-0.6993 0.45229,-0.11307 0.93241,0 1.39861,0 0.4662,0 0.9324,0 1.3986,0 1.6317,0 3.2634,0 4.8951,0 1.8648,0 3.72961,0 5.59441,0 0.9324,0 1.88291,-0.18286 2.7972,0 0.72281,0.14456 1.37509,0.55474 2.0979,0.6993 0.78868,0.15773 2.58134,0 3.49651,0 0.4662,0 0.9324,0 1.3986,0 0.2331,0 0.53447,0.16482 0.6993,0 0.16482,-0.16483 0.16482,-0.53448 0,-0.6993 -0.16483,-0.16483 -0.49081,0.10424 -0.6993,0 -0.29485,-0.14743 -0.38657,-0.59506 -0.6993,-0.6993 -0.44228,-0.14743 -0.95633,0.14742 -1.3986,0 -0.31274,-0.10425 -0.40445,-0.55188 -0.69931,-0.6993 -0.20849,-0.10425 -0.47816,0.0737 -0.6993,0 -0.49448,-0.16483 -0.90412,-0.53448 -1.3986,-0.6993 -0.22114,-0.0737 -0.47816,0.0737 -0.6993,0 -5.06532,-1.68845 1.10252,0.20161 -2.0979,-1.39861 -0.20849,-0.10424 -0.47816,0.0737 -0.6993,0 -0.49448,-0.16482 -0.90412,-0.53447 -1.3986,-0.6993 -0.44228,-0.14742 -1.06895,0.32966 -1.3986,0 -0.16483,-0.16482 0.16482,-0.53447 0,-0.6993 -0.16483,-0.16482 -0.6993,-0.2331 -0.6993,0 0,1.06114 0.98067,0.56 1.3986,0.6993 0.49448,0.16483 0.90412,0.53448 1.3986,0.6993 0.22114,0.0737 0.4662,0 0.6993,0 0.4662,0.2331 0.90412,0.53448 1.3986,0.6993 0.22114,0.0737 0.47816,-0.0737 0.6993,0 0.98896,0.32966 1.80824,1.06895 2.7972,1.39861 0.22114,0.0737 0.47817,-0.0737 0.6993,0 0.49448,0.16482 0.90413,0.53447 1.39861,0.6993 0.22113,0.0737 0.49081,-0.10425 0.6993,0 0.18567,0.0928 2.00506,1.91223 2.0979,2.0979 0.0298,0.0596 0.0298,2.73759 0,2.7972 -0.14743,0.29485 -0.55188,0.40445 -0.6993,0.6993 -0.10425,0.20849 0.10424,0.49081 0,0.6993 -0.14743,0.29485 -0.4662,0.4662 -0.6993,0.6993 -0.2331,0.2331 -0.4662,0.4662 -0.6993,0.6993 -0.36816,0.36816 -1.72442,1.91116 -2.09791,2.09791 -0.20849,0.10424 -0.53447,-0.16483 -0.6993,0 -0.9324,0.9324 1.1655,0.6993 -0.6993,0.6993"
       id="path3051"
       inkscape:connector-curvature="0" />
    <path
       style="fill:none;stroke:#000000;stroke-width:1px;stroke-linecap:butt;stroke-linejoin:miter;stroke-opacity:1"
       d="m 323.77622,218.79575 c -0.81978,0.20495 -2.90554,0.21669 -3.4965,1.3986 -0.10425,0.20849 0.10425,0.49081 0,0.6993 -0.14743,0.29485 -0.55187,0.40445 -0.6993,0.6993 -0.20849,0.41698 0.20849,0.98162 0,1.3986 -0.14743,0.29485 -0.59506,0.38657 -0.6993,0.6993 -0.0173,0.0519 -0.0768,4.04227 0,4.19581 0.14742,0.29485 0.4662,0.4662 0.6993,0.6993 0.2331,0.2331 0.40445,0.55187 0.6993,0.6993 0.20849,0.10425 0.49081,-0.10425 0.6993,0 0.29485,0.14743 0.40445,0.55187 0.6993,0.6993 0.0366,0.0183 2.06132,0.0183 2.0979,0 0.29485,-0.14743 0.38657,-0.59505 0.6993,-0.6993 0.44228,-0.14743 0.95633,0.14743 1.39861,0 0.31273,-0.10425 0.4662,-0.4662 0.6993,-0.6993 0.54621,-0.54622 1.69561,-1.49448 2.0979,-2.0979 0.28912,-0.43369 0.41017,-0.96492 0.6993,-1.3986 0.18286,-0.27429 0.55187,-0.40445 0.6993,-0.69931 0.20849,-0.41698 -0.20849,-0.98161 0,-1.3986 0.28431,-0.56861 1.1093,-0.57861 0.6993,-1.3986 -0.14742,-0.29485 -0.55187,-0.40445 -0.6993,-0.6993 -0.20849,-0.41698 0.32965,-1.06895 0,-1.3986 -1.44688,-1.44688 0.0566,2.21102 -1.3986,-0.6993 -0.10425,-0.20849 0.16483,-0.53447 0,-0.6993 -0.32965,-0.32966 -1.06895,0.32965 -1.3986,0 -0.16483,-0.16483 0.22857,-0.74502 0,-0.6993 -5.31709,1.06342 -2.78725,0.6495 -3.49651,4.1958 -0.0647,0.32325 -0.4662,0.4662 -0.6993,0.6993 0,0.4662 0,0.9324 0,1.3986 0,0.48289 0.10631,2.58459 0,2.79721 -0.14742,0.29485 -0.55187,0.40445 -0.6993,0.6993 -0.10424,0.20849 0,0.4662 0,0.6993 0,0.2331 0,0.4662 0,0.6993 0,0.2331 -0.2331,0.6993 0,0.6993 0.86413,0 0.6993,-0.98068 0.6993,-1.3986"
       id="path3053"
       inkscape:connector-curvature="0" />
    <path
       style="fill:none;stroke:#000000;stroke-width:1px;stroke-linecap:butt;stroke-linejoin:miter;stroke-opacity:1"
       d="m 322.37762,222.99155 c 0.79389,-0.82651 -1.07516,-2.36891 -0.6993,-3.4965 0.16483,-0.49448 0.53448,-0.90412 0.6993,-1.3986 0.22114,-0.66342 -0.1696,-1.41948 0,-2.0979 0.12642,-0.50567 0.57289,-0.89294 0.6993,-1.39861 0.11307,-0.45228 0,-0.9324 0,-1.3986 0,-0.4662 0,-0.9324 0,-1.3986 0,-1.6317 0,-3.2634 0,-4.8951 0,-0.6993 0,-1.3986 0,-2.0979 0,-0.46621 -0.0914,-0.94146 0,-1.39861 0.14457,-0.72281 0.57812,-1.3708 0.6993,-2.0979 0.19161,-1.14964 0,-2.331 0,-3.4965 0,-2.7972 0,-5.59441 0,-8.39161 0,-0.6993 0,-1.3986 0,-2.0979 0,-0.6993 -0.11496,-1.40812 0,-2.0979 0.12119,-0.7271 0.55474,-1.37509 0.6993,-2.09791 0.0914,-0.45714 0,-0.9324 0,-1.3986 0,-1.8648 0,-3.7296 0,-5.5944 0,-0.4662 0,-0.9324 0,-1.39861 0,-0.4662 -0.11307,-0.94632 0,-1.3986 0.12642,-0.50566 0.53448,-0.90412 0.69931,-1.3986 0.0737,-0.22114 0,-0.4662 0,-0.6993 0,-0.4662 0,-0.9324 0,-1.3986 0,-1.6317 0,-3.2634 0,-4.8951 0,-0.49567 -0.0904,-4.015 0,-4.19581 0.14742,-0.29485 0.55187,-0.40445 0.6993,-0.6993 0.12644,-0.25289 0,-3.01011 0,-3.4965"
       id="path3055"
       inkscape:connector-curvature="0" />
    <path
       style="fill:none;stroke:#000000;stroke-width:1px;stroke-linecap:butt;stroke-linejoin:miter;stroke-opacity:1"
       d="m 325.17483,134.87967 c -3.09206,1.54602 -2.06008,0.66147 -3.49651,2.0979 -0.2331,0.2331 -0.51644,0.42501 -0.6993,0.6993 -0.28912,0.43369 -0.4662,0.9324 -0.6993,1.3986 -0.2331,0.4662 -0.53447,0.90412 -0.6993,1.3986 -0.22114,0.66342 0.1696,1.41948 0,2.0979 -0.12642,0.50567 -0.53447,0.90412 -0.6993,1.3986 -0.0631,0.18936 -0.0264,3.41744 0,3.49651 0.10424,0.31273 0.4662,0.4662 0.6993,0.6993 0.2331,0.2331 0.4662,0.4662 0.6993,0.6993 0.36816,0.36816 1.72442,1.91116 2.0979,2.0979 0.20849,0.10425 0.4662,0 0.6993,0 0.23824,0 2.41874,0.12616 2.79721,0 0.49448,-0.16483 0.90412,-0.53447 1.3986,-0.6993 0.22114,-0.0737 0.49081,0.10425 0.6993,0 0.29485,-0.14743 0.4662,-0.4662 0.6993,-0.6993 0.2331,-0.2331 0.55187,-0.40445 0.6993,-0.6993 0.10424,-0.20849 -0.10425,-0.49081 0,-0.6993 0.14742,-0.29485 0.55187,-0.40445 0.6993,-0.6993 0.10425,-0.20849 0,-0.4662 0,-0.6993 0,-0.2331 0.10425,-0.49081 0,-0.6993 -0.14743,-0.29485 -0.4662,-0.4662 -0.6993,-0.6993 -0.2331,-0.2331 -0.40445,-0.55188 -0.6993,-0.69931 -0.20849,-0.10424 -0.53448,0.16483 -0.6993,0 -0.16483,-0.16482 0.16482,-0.53447 0,-0.6993 -0.32966,-0.32965 -0.98162,0.2085 -1.3986,0 -0.29485,-0.14742 -0.40445,-0.55187 -0.6993,-0.6993 -0.2085,-0.10424 -0.93241,0 -0.6993,0 3.18341,0 0.04,0.32966 2.0979,-0.6993 0.45791,-0.22895 2.87592,0.20686 3.4965,0 0.49448,-0.16482 0.90412,-0.53447 1.3986,-0.6993 0.65882,-0.2196 3.74242,0.2267 4.19581,0 0.29485,-0.14742 0.40445,-0.55187 0.6993,-0.6993 0.20849,-0.10424 0.4662,0 0.6993,0 0.2331,0 0.4662,0 0.6993,0"
       id="path3059"
       inkscape:connector-curvature="0" />
    <path
       style="fill:none;stroke:#000000;stroke-width:1px;stroke-linecap:butt;stroke-linejoin:miter;stroke-opacity:1"
       d="m 393.70629,261.45309 c 0.0347,1.62946 2.82901,1.46221 3.49651,2.7972 0.10424,0.2085 -0.10425,0.49081 0,0.69931 0.41958,0.83916 1.67832,1.25874 2.0979,2.0979 0.10424,0.20849 -0.10425,0.49081 0,0.6993 0.41958,0.83916 1.67832,1.25874 2.0979,2.0979 0.10425,0.20849 -0.16483,0.53447 0,0.6993 0.16483,0.16483 0.53448,0.16483 0.6993,0 0.16483,-0.16483 -0.10424,-0.49081 0,-0.6993 0.14743,-0.29485 0.55188,-0.40445 0.6993,-0.6993 0.20849,-0.41698 -0.20849,-0.98162 0,-1.3986 0.14743,-0.29485 0.55188,-0.40445 0.6993,-0.6993 1.02896,-2.05791 -1.61998,0.92068 0.6993,-1.3986 0.2331,-0.2331 0.55188,-0.40445 0.6993,-0.6993 0.10425,-0.2085 0,-0.46621 0,-0.69931 0.23311,-0.4662 0.41018,-0.96491 0.69931,-1.3986 0.36571,-0.54857 1.03288,-0.85002 1.3986,-1.3986 0.28912,-0.43369 0.41017,-0.96491 0.6993,-1.3986 0.18286,-0.27429 0.51644,-0.42501 0.6993,-0.6993 0.28912,-0.43369 0.41017,-0.96491 0.6993,-1.3986 0.36572,-0.54858 0.9324,-0.9324 1.3986,-1.3986 0.6993,-0.6993 1.3986,-1.3986 2.0979,-2.09791"
       id="path3067"
       inkscape:connector-curvature="0" />
    <path
       style="fill:none;stroke:#000000;stroke-width:1px;stroke-linecap:butt;stroke-linejoin:miter;stroke-opacity:1"
       d="m 368.53147,304.80974 c -2.39469,-0.7305 -2.16151,2.1297 -3.4965,2.7972 -2.05791,1.02895 0.92068,-1.61999 -1.39861,0.6993 -0.36815,0.36816 -1.72441,1.91116 -2.0979,2.0979 -0.20849,0.10425 -0.53447,-0.16483 -0.6993,0 -0.16483,0.16483 0.16483,0.53447 0,0.6993 -0.16483,0.16483 -0.49081,-0.10424 -0.6993,0 -0.29485,0.14743 -0.40445,0.55188 -0.6993,0.6993 -0.20849,0.10425 -0.53447,-0.16482 -0.6993,0 -0.16483,0.16483 0,0.4662 0,0.6993 0,0.2331 0,0.9324 0,0.6993 0,-0.4662 0,-1.8648 0,-1.3986 0,0.6993 -0.16961,1.41948 0,2.0979 0.0799,0.31982 0.55187,0.40445 0.6993,0.6993 0.10425,0.2085 -0.16483,0.53448 0,0.69931 0.16483,0.16482 0.53447,-0.16483 0.6993,0 0.16483,0.16482 -0.10425,0.49081 0,0.6993 0.7731,1.54619 0.43402,0.217 1.3986,0.6993 0.83916,0.41958 1.25874,1.67832 2.0979,2.0979 0.20849,0.10424 0.49081,-0.10425 0.6993,0 0.58971,0.29485 0.8089,1.10375 1.39861,1.3986 0.20849,0.10425 0.49081,-0.10425 0.6993,0 0.29485,0.14743 0.40445,0.55188 0.6993,0.6993 2.05791,1.02896 -0.92069,-1.61999 1.3986,0.6993 0.2331,0.2331 0.40445,0.55188 0.6993,0.6993 0.20849,0.10425 0.53447,-0.16482 0.6993,0 0.16483,0.16483 -0.16483,0.53448 0,0.6993 0.16483,0.16483 0.53447,0.16483 0.6993,0 0.16483,-0.16482 0,-0.4662 0,-0.6993 0,-0.2331 0,-0.4662 0,-0.6993"
       id="path3069"
       inkscape:connector-curvature="0" />
    <path
       style="fill:none;stroke:#000000;stroke-width:1px;stroke-linecap:butt;stroke-linejoin:miter;stroke-opacity:1"
       d="m 218.88112,253.76078 c -0.4662,0.9324 -0.9324,1.86481 -1.3986,2.79721 0,0.2331 0.0737,0.47816 0,0.6993 -0.16483,0.49448 -0.53448,0.90412 -0.6993,1.3986 -0.0737,0.22114 0.0737,0.47816 0,0.6993 -0.16483,0.49448 -0.53448,0.90412 -0.6993,1.3986 -0.0737,0.22114 0.0737,0.47816 0,0.6993 -0.16483,0.49448 -0.53448,0.90412 -0.6993,1.3986 -0.22114,0.66342 0.22113,1.43449 0,2.09791 -0.10425,0.31273 -0.55188,0.40444 -0.69931,0.6993 -0.10424,0.20849 0,0.4662 0,0.6993 -0.2331,0.2331 -0.55187,0.40445 -0.6993,0.6993 -0.10424,0.20849 0.2331,0.6993 0,0.6993 -0.2331,0 0,-0.4662 0,-0.6993 0,-1.63999 -0.16482,0.32965 0.6993,-1.3986 0.2085,-0.41699 -0.20849,-0.98162 0,-1.39861 0.14743,-0.29485 0.59506,-0.38656 0.69931,-0.6993 0.14742,-0.44227 -0.11307,-0.94632 0,-1.3986 0.12641,-0.50566 0.53447,-0.90412 0.6993,-1.3986 0.0737,-0.22114 -0.0737,-0.47816 0,-0.6993 0.16482,-0.49448 0.57288,-0.89294 0.6993,-1.3986 0.11307,-0.45228 -0.18365,-0.9701 0,-1.3986 2.90081,-6.76857 1.66397,-0.19363 2.7972,-6.99301 0.0696,-0.41792 -0.26333,-1.3986 0.6993,-1.3986 0.56861,0 0.90826,0.98068 0.6993,1.3986 -0.60785,1.2157 -2.85185,2.36558 -2.0979,3.4965 0.6963,1.04446 2.2656,-1.15242 3.4965,-1.3986 0.45715,-0.0914 -0.20849,0.98162 0,1.3986 1.60021,3.20043 -0.28984,-2.96742 1.3986,2.09791 0.0737,0.22113 -0.10424,0.49081 0,0.6993 0.14743,0.29485 0.4662,0.4662 0.6993,0.6993 0.69931,0.6993 1.39861,1.3986 2.09791,2.0979 0.2331,0.2331 0.51644,0.42501 0.6993,0.6993 0.28912,0.43369 0.41017,0.96491 0.6993,1.3986 0.42439,0.63659 1.78799,1.47809 2.0979,2.0979 0.10425,0.20849 -0.16483,0.53448 0,0.6993 0.16483,0.16483 0.53447,-0.16482 0.6993,0 0.9324,0.93241 -1.1655,0.69931 0.6993,0.69931"
       id="path3071"
       inkscape:connector-curvature="0" />
  </g>
</svg>
